HIERARCHY
ROOT Hips
{
  OFFSET 43.0842 91.1655 101.099
  CHANNELS 6 Xposition Yposition Zposition Zrotation Xrotation Yrotation
  JOINT LeftUpLeg
  {
    OFFSET 8.64259 1.95398 -2.38835
    CHANNELS 3 Zrotation Xrotation Yrotation
    JOINT LeftLeg
    {
      OFFSET 43.7702 0 0
      CHANNELS 3 Zrotation Xrotation Yrotation
      JOINT LeftFoot
      {
        OFFSET 40.6238 0 0
        CHANNELS 3 Zrotation Xrotation Yrotation
        JOINT LeftToeBase
        {
          OFFSET 12.7242 0 0
          CHANNELS 3 Zrotation Xrotation Yrotation
          End Site
          {
            OFFSET 0 0 0
          }
        }
      }
    }
  }
  JOINT RightUpLeg
  {
    OFFSET -8.2249 1.95398 -2.59336
    CHANNELS 3 Zrotation Xrotation Yrotation
    JOINT RightLeg
    {
      OFFSET 43.5653 0 0
      CHANNELS 3 Zrotation Xrotation Yrotation
      JOINT RightFoot
      {
        OFFSET 40.6238 0 0
        CHANNELS 3 Zrotation Xrotation Yrotation
        JOINT RightToeBase
        {
          OFFSET 12.7242 0 0
          CHANNELS 3 Zrotation Xrotation Yrotation
          End Site
          {
            OFFSET 0 0 0
          }
        }
      }
    }
  }
  JOINT Spine
  {
    OFFSET 0.165834 0.87714 6.61349
    CHANNELS 3 Zrotation Xrotation Yrotation
    JOINT Spine1
    {
      OFFSET 7.38963 1.71661e-005 0
      CHANNELS 3 Zrotation Xrotation Yrotation
      JOINT Spine2
      {
        OFFSET 11.9445 1.14441e-005 0
        CHANNELS 3 Zrotation Xrotation Yrotation
        JOINT Spine3
        {
          OFFSET 14.7254 4.19617e-005 0
          CHANNELS 3 Zrotation Xrotation Yrotation
          JOINT Spine4
          {
            OFFSET 10.9679 0 0
            CHANNELS 3 Zrotation Xrotation Yrotation
            JOINT RightShoulder
            {
              OFFSET 2.46616 -1.6653 3.69651
              CHANNELS 3 Zrotation Xrotation Yrotation
              JOINT RightArm
              {
                OFFSET 13.0012 0 0
                CHANNELS 3 Zrotation Xrotation Yrotation
                JOINT RightForeArm
                {
                  OFFSET 28.7848 1.52588e-005 0
                  CHANNELS 3 Zrotation Xrotation Yrotation
                  JOINT RightHand
                  {
                    OFFSET 26.5688 1.52588e-005 0
                    CHANNELS 3 Zrotation Xrotation Yrotation
                    End Site
                    {
                      OFFSET 0 0 0
                    }
                  }
                }
              }
            }
            JOINT LeftShoulder
            {
              OFFSET 2.38034 -1.29275 -3.7523
              CHANNELS 3 Zrotation Xrotation Yrotation
              JOINT LeftArm
              {
                OFFSET 16.3182 6.10351e-005 0
                CHANNELS 3 Zrotation Xrotation Yrotation
                JOINT LeftForeArm
                {
                  OFFSET 27.0901 0 0
                  CHANNELS 3 Zrotation Xrotation Yrotation
                  JOINT LeftHand
                  {
                    OFFSET 24.5451 1.52588e-005 0
                    CHANNELS 3 Zrotation Xrotation Yrotation
                    End Site
                    {
                      OFFSET 0 0 0
                    }
                  }
                }
              }
            }
            JOINT Neck
            {
              OFFSET 5.0226 -0.0266342 0
              CHANNELS 3 Zrotation Xrotation Yrotation
              JOINT Head
              {
                OFFSET 6.69364 2.86102e-005 0
                CHANNELS 3 Zrotation Xrotation Yrotation
                End Site
                {
                  OFFSET 0 0 0
                }
              }
            }
          }
        }
      }
    }
  }
}
MOTION
Frames:	6
Frame Time:	0.0333333
47.586 91.3285 106.475 -93.8514 -43.0581 -93.1572 -172.435 17.8181 100.683 -24.2142 12.431 -3.70548 58.5093 -6.98801 11.9549 29.955 -2.65095 6.48804 174.86 3.78594 85.0805 -21.798 -6.07637 -3.64571 72.3473 -12.618 -4.2448 39.3008 -6.95449 5.14117 -0.216708 7.40654 -89.7436 12.0613 -0.309586 0.545544 0.390239 -0.285274 0.558637 -22.1446 -0.459234 0.427281 -2.13195 -0.459239 0.427282 96.4614 -38.7998 -92.2927 23.8334 -23.7476 -51.0237 -12.0454 -3.83694 -119.241 -11.686 -1.69641 10.6768 -99.2746 -56.0951 67.1229 -23.0021 -56.6845 -41.8084 10.7087 15.8921 -121.932 17.3821 1.7513 6.0129 -20.5225 10.9528 11.8942 0.342648 11.9553 9.5014 
47.5831 91.3497 106.438 -93.6438 -42.9277 -92.9657 -172.478 18.0288 100.703 -24.2549 11.2556 -3.66857 58.5356 -7.1183 11.795 29.736 -2.78163 6.22134 174.961 3.92845 85.1703 -21.7249 -5.99701 -3.6512 72.2271 -12.5856 -4.13326 39.297 -6.9341 5.05903 -0.194693 7.38364 -89.7644 12.107 -0.275416 0.500507 0.435947 -0.253091 0.512134 -22.0989 -0.413111 0.394595 -2.08627 -0.413094 0.394601 96.4919 -38.6886 -92.2542 24.5675 -23.1109 -50.9433 -10.2045 -4.88031 -118.978 -10.1071 -1.14404 10.0951 -99.5786 -56.2559 66.7599 -15.2283 -57.2001 -34.4643 9.4727 17.3257 -121.958 22.0502 2.70327 4.91597 -20.7342 10.973 12.1158 0.483554 12.0188 9.43447 
47.5023 91.4596 106.444 -93.6525 -42.6319 -92.919 -172.256 17.7123 100.709 -23.8422 11.0389 -3.72318 58.6636 -6.34163 10.6489 29.8285 -4.10332 8.2587 175.246 4.24408 85.2996 -22.6312 -5.48839 -4.02653 72.2769 -12.3171 -2.25894 38.9391 -6.56829 4.20562 -0.156785 7.40541 -89.7842 12.0633 -0.209755 0.453471 0.392258 -0.18957 0.462245 -22.1426 -0.336348 0.369468 -2.12994 -0.336338 0.369461 96.564 -38.6459 -92.131 24.5207 -22.888 -51.2609 -11.7161 -4.05097 -118.146 -9.07434 -0.846657 8.59322 -99.1272 -55.8786 67.2552 -16.0052 -54.8345 -35.0059 13.7027 13.3591 -122.191 23.188 2.92082 6.58662 -20.1489 10.9796 12.3298 0.338252 11.9341 9.01436 
47.3882 91.3756 106.41 -93.9597 -42.582 -93.0081 -172.191 17.8114 100.96 -24.5425 10.6457 -3.6863 58.9854 -6.14012 10.4326 29.6478 -4.24466 8.07963 175.131 3.60683 85.4872 -21.6644 -5.03147 -3.78734 72.5125 -12.9259 -3.04068 39.1762 -6.85915 4.98469 -0.145217 7.43511 -89.802 12.0036 -0.195268 0.416173 0.332582 -0.176756 0.424351 -22.2023 -0.311321 0.338244 -2.18965 -0.31133 0.338244 96.5614 -38.5052 -92.1563 24.4027 -23.0079 -51.1524 -11.5039 -3.84942 -118.319 -9.44464 -0.974219 8.65098 -99.4983 -56.0463 66.8012 -15.7711 -55.6535 -35.3138 12.965 14.284 -122.024 23.2395 2.92881 6.20033 -20.2323 10.8631 12.3388 0.642763 11.8488 8.99325 
47.3035 91.3793 106.449 -93.9545 -42.7127 -92.9209 -172.053 17.8435 101.109 -24.4527 11.4549 -3.82027 58.8718 -6.29576 11.0575 29.7632 -3.8779 7.81602 175.227 3.53481 85.6447 -21.9163 -4.95615 -3.8848 72.8017 -13.0441 -2.41365 38.409 -6.2152 3.80094 -0.159092 7.4408 -89.8047 11.9961 -0.224038 0.413848 0.32507 -0.205601 0.423301 -22.2099 -0.338059 0.327388 -2.19724 -0.338061 0.327374 96.4988 -38.5272 -92.2657 23.8439 -23.2241 -51.2213 -11.5109 -3.27242 -118.292 -9.70568 -1.06981 8.55713 -99.3792 -55.9535 66.934 -15.7524 -55.7925 -35.635 12.7807 14.7996 -121.808 23.8935 3.0564 6.01014 -20.2329 10.7904 12.1401 0.919617 11.7951 9.15757 
47.2413 91.2883 106.513 -93.9659 -42.8596 -92.9773 -171.993 18.1348 101.135 -25.0525 12.8917 -3.9366 58.9353 -6.12095 11.6116 29.9044 -3.87619 8.10891 175.24 3.54891 85.552 -22.1928 -5.11813 -3.95413 73.0215 -13.1823 -2.61832 38.5893 -6.36598 4.07217 -0.177267 7.44415 -89.795 12.0014 -0.255616 0.436262 0.330368 -0.23617 0.447089 -22.2046 -0.374902 0.339276 -2.19195 -0.374906 0.339272 96.5114 -38.5857 -92.2344 23.2928 -23.4008 -51.2363 -11.1885 -3.04963 -118.417 -9.80318 -1.10426 8.54553 -99.3633 -55.9218 66.9456 -15.8901 -55.9131 -36.1091 12.8572 15.0848 -121.71 24.1634 3.11512 6.32244 -20.2533 10.7072 11.9779 1.16784 11.727 9.17823 
